<?xml version="1.0" standalone="no"?><!DOCTYPE svg PUBLIC "-//W3C//DTD SVG 1.1//EN" "http://www.w3.org/Graphics/SVG/1.1/DTD/svg11.dtd"><svg t="1602769803463" class="icon" viewBox="0 0 1024 1024" version="1.1" xmlns="http://www.w3.org/2000/svg" p-id="3939" xmlns:xlink="http://www.w3.org/1999/xlink" width="200" height="200"><defs><style type="text/css"></style></defs><path d="M733.9 579.3c0 17.1-13.4 31-30.5 31.6H398.3l21.3 21.3c6 6 9.3 13.9 9.3 22.4 0 8.5-3.3 16.4-9.3 22.4-6 6-13.9 9.3-22.4 9.3-8.5 0-16.4-3.3-22.4-9.3l-74.6-74.5c-6.5-6-10.2-14.4-10.2-23.3 0-7.7 2.8-15.2 7.9-20.9 6-6.8 14.6-10.7 23.7-10.7h379.8c8.3-0.2 16.2 2.8 22.3 8.4 6.2 5.7 9.8 13.6 10.1 22 0.1 0.5 0.1 0.9 0.1 1.3zM290.1 444.7c0-17.1 13.4-31 30.5-31.6h305.2l-21.3-21.3c-6-6-9.3-13.9-9.3-22.4 0-8.5 3.3-16.4 9.3-22.4 6-6 13.9-9.3 22.4-9.3 8.5 0 16.4 3.3 22.4 9.3l74.6 74.5c6.5 6 10.2 14.4 10.2 23.3 0 7.7-2.8 15.2-7.9 20.9-6 6.8-14.6 10.7-23.7 10.7h-380c-8.3 0.2-16.2-2.8-22.3-8.4-6.2-5.7-9.8-13.6-10.1-22v-1.3z" fill="" p-id="3940"></path></svg>